<svg width="186.34mm" height="258.49mm" version="1.1" viewBox="0 0 186.34 258.49" xmlns="http://www.w3.org/2000/svg">
 <g transform="translate(-16.967 -3.903)">
  <path d="m110 204.62v-57.777l2.1828-0.18019c20.418-1.6855 37.769-16.335 42.8-36.136 3.5774-14.079 0.70074-28.668-7.9558-40.349-8.198-11.062-21.034-18.271-34.514-19.383l-2.3812-0.19638-0.1352-46.699 1.7874 0.0054c2.7652 0.0084 9.0586 0.6954 13.297 1.4515 39.779 7.0967 70.869 38.834 76.979 78.58 1.4215 9.2474 1.6003 15.442 0.64169 22.225-3.7644 26.638-26.384 68.511-66.103 122.37-8.823 11.964-25.876 33.833-26.401 33.857-0.10914 5e-3 -0.19844-25.991-0.19844-57.768z" fill="#0297ff"/>
  <path d="m110.27 204.62v-57.777l-2.1828-0.18019c-20.418-1.6855-37.769-16.335-42.8-36.136-3.5774-14.079-0.70074-28.668 7.9558-40.349 8.198-11.062 21.034-18.271 34.514-19.383l2.3812-0.19638 0.0676-23.349 0.0676-23.349-1.7874 0.0054c-2.7652 0.0084-9.0586 0.6954-13.297 1.4515-39.779 7.0967-70.869 38.834-76.979 78.58-1.4215 9.2474-1.6003 15.442-0.64169 22.225 3.7644 26.638 26.384 68.511 66.103 122.37 8.823 11.964 25.876 33.833 26.401 33.857 0.10914 5e-3 0.19844-25.991 0.19844-57.768z" fill="#1074b3" stroke-width=".26458"/>
 </g>
</svg>
