<?xml version="1.0" standalone="no"?>
<!DOCTYPE svg PUBLIC "-//W3C//DTD SVG 20010904//EN"
 "http://www.w3.org/TR/2001/REC-SVG-20010904/DTD/svg10.dtd">
<svg version="1.0" xmlns="http://www.w3.org/2000/svg"
 width="977.000000pt" height="977.000000pt" viewBox="0 0 977.000000 977.000000"
 preserveAspectRatio="xMidYMid meet">
<metadata>
Created by potrace 1.14, written by Peter Selinger 2001-2017
</metadata>
<g transform="translate(0.000000,977.000000) scale(0.100000,-0.100000)"
fill="#000000" stroke="none">
<path d="M4689 9765 c-2 -2 -35 -6 -74 -10 -38 -3 -81 -8 -95 -10 -14 -2 -50
-7 -80 -10 -30 -4 -64 -9 -75 -12 -11 -2 -31 -6 -45 -9 -14 -2 -41 -7 -60 -11
-19 -4 -42 -8 -50 -9 -8 -1 -35 -7 -60 -13 -43 -11 -58 -15 -105 -25 -11 -3
-51 -14 -90 -26 -38 -12 -74 -22 -80 -24 -22 -5 -151 -49 -160 -55 -5 -3 -12
-6 -15 -6 -7 0 -68 -24 -117 -46 -24 -11 -45 -19 -47 -19 -6 0 -133 -57 -156
-70 -8 -5 -48 -25 -87 -45 -40 -21 -102 -55 -137 -76 -36 -21 -70 -39 -75 -39
-6 0 -11 -4 -11 -9 0 -5 -12 -15 -28 -22 -27 -14 -172 -108 -182 -119 -3 -3
-39 -30 -80 -60 -41 -30 -84 -63 -95 -75 -11 -11 -36 -32 -55 -47 -92 -70
-301 -277 -417 -414 -40 -48 -147 -183 -181 -229 -23 -31 -132 -197 -132 -200
0 -2 -18 -32 -40 -66 -22 -34 -40 -68 -40 -75 0 -7 -3 -14 -8 -16 -4 -1 -27
-43 -52 -93 -25 -49 -49 -93 -55 -97 -5 -4 -6 -8 -2 -8 5 0 1 -10 -7 -22 -9
-12 -16 -30 -16 -39 0 -9 -6 -22 -14 -28 -8 -6 -16 -22 -19 -34 -3 -12 -26
-76 -52 -142 -26 -66 -48 -127 -49 -135 -1 -8 -5 -22 -9 -30 -9 -20 -56 -179
-61 -205 -3 -17 -25 -112 -41 -180 -3 -10 -7 -37 -10 -60 -3 -22 -8 -47 -10
-55 -2 -8 -6 -33 -9 -55 -4 -22 -8 -51 -11 -65 -4 -25 -8 -59 -22 -185 -9 -86
-9 -454 0 -515 4 -25 10 -61 12 -80 3 -20 8 -47 10 -60 3 -14 8 -41 11 -60 9
-59 65 -284 75 -302 5 -10 9 -24 9 -31 0 -51 188 -549 297 -787 51 -111 317
-645 329 -660 6 -8 29 -49 51 -90 45 -85 73 -134 151 -270 30 -52 63 -108 72
-125 9 -16 47 -79 83 -139 37 -59 67 -112 67 -117 0 -5 4 -9 10 -9 5 0 12 -11
16 -25 3 -14 10 -25 15 -25 5 0 9 -4 9 -9 0 -6 14 -30 30 -54 17 -25 30 -50
30 -56 0 -6 4 -11 9 -11 5 0 14 -13 21 -30 7 -16 16 -30 21 -30 5 0 9 -4 9 -9
0 -6 13 -29 28 -53 16 -24 43 -65 60 -93 17 -27 35 -55 40 -61 5 -5 15 -21 22
-34 7 -13 17 -29 21 -34 5 -6 73 -108 152 -226 155 -234 230 -343 376 -550 52
-74 104 -149 116 -167 12 -17 30 -39 39 -48 9 -9 16 -22 16 -30 0 -7 4 -15 8
-17 7 -2 179 -235 232 -311 15 -23 132 -180 153 -207 7 -8 59 -78 117 -155 58
-77 110 -147 117 -155 7 -8 58 -73 113 -145 55 -71 107 -138 115 -148 8 -9 15
-19 15 -22 0 -5 24 -35 46 -59 5 -6 43 -54 84 -106 40 -52 76 -97 79 -100 4
-3 30 -36 60 -74 69 -88 81 -104 109 -132 12 -13 22 -26 22 -29 0 -3 6 -12 13
-19 10 -12 16 -12 38 1 15 9 33 27 42 42 9 14 30 42 47 61 17 19 34 40 38 45
5 6 57 72 118 149 60 76 116 148 124 160 8 11 21 28 29 36 8 8 46 57 85 110
39 52 74 97 77 100 7 5 99 126 297 390 56 74 105 140 109 145 5 6 33 44 63 85
30 41 58 76 62 78 5 2 8 7 8 12 0 5 33 53 73 107 40 54 95 130 122 168 26 39
52 72 57 73 4 2 8 8 8 13 0 7 36 60 78 114 10 13 106 151 190 275 36 52 89
129 119 172 29 42 53 81 53 87 0 6 4 11 8 11 4 0 17 14 27 32 50 79 62 99 93
142 17 26 32 49 32 52 0 3 5 10 11 17 20 22 226 345 302 472 7 11 14 22 17 25
3 3 11 16 18 29 8 13 23 39 33 59 11 19 27 41 35 49 7 8 14 18 14 23 0 5 22
45 49 89 48 77 200 341 258 447 87 160 134 250 132 258 0 5 3 12 8 15 5 3 23
33 39 66 16 33 32 62 37 63 4 2 7 8 7 13 0 6 29 69 64 142 71 147 142 304 176
387 12 30 26 64 31 75 4 11 20 49 34 85 14 36 30 74 35 85 5 11 16 40 24 65 8
25 25 74 39 110 13 36 25 68 26 73 0 4 1 8 2 10 0 1 2 9 4 17 2 8 16 53 30
100 14 47 27 94 29 105 2 11 11 48 20 82 14 54 35 158 50 248 16 92 19 160 19
345 0 185 -4 262 -18 355 -3 17 -8 55 -11 85 -7 57 -11 85 -14 85 -1 0 -3 16
-6 35 -2 19 -9 58 -14 86 -6 28 -13 61 -15 75 -5 22 -29 122 -40 162 -3 9 -7
26 -9 37 -18 78 -115 355 -158 450 -76 168 -190 386 -229 442 -11 14 -19 29
-19 32 0 16 -216 318 -232 324 -4 2 -8 8 -8 14 0 6 -11 21 -25 34 -14 13 -25
26 -25 29 0 4 -15 23 -34 43 -202 221 -283 300 -436 425 -41 34 -77 64 -80 67
-10 11 -186 136 -245 174 -33 21 -72 47 -87 57 -15 11 -30 19 -34 19 -3 0 -19
9 -34 20 -41 29 -338 180 -355 180 -7 0 -15 4 -17 10 -1 5 -12 11 -23 13 -11
1 -25 5 -30 9 -41 26 -427 156 -510 172 -17 3 -50 10 -75 16 -94 21 -246 50
-295 55 -81 9 -144 17 -165 22 -29 6 -466 14 -471 8z m301 -1769 c36 -3 65 -5
65 -6 0 -1 9 -3 20 -4 21 -3 70 -12 118 -21 137 -27 417 -129 468 -172 9 -7
19 -10 22 -6 4 3 7 1 7 -5 0 -7 5 -12 11 -12 16 0 171 -103 253 -168 90 -71
227 -208 291 -292 28 -36 53 -66 58 -68 4 -2 7 -9 7 -16 0 -7 9 -21 20 -31 11
-10 20 -22 20 -26 0 -5 16 -34 36 -65 50 -77 145 -283 160 -344 2 -8 10 -36
18 -62 8 -27 12 -48 9 -48 -3 0 -1 -6 5 -12 8 -11 24 -82 23 -103 0 -2 4 -19
9 -36 34 -117 33 -443 -1 -624 -6 -33 -12 -69 -14 -80 -1 -11 -5 -27 -8 -35
-5 -15 -15 -58 -17 -72 0 -4 -9 -28 -20 -53 -11 -25 -18 -45 -15 -45 9 0 -70
-183 -96 -220 -9 -14 -18 -29 -19 -35 -6 -24 -34 -75 -42 -75 -4 0 -8 -5 -8
-11 0 -19 -99 -158 -180 -253 -43 -50 -163 -167 -200 -195 -19 -14 -44 -34
-55 -44 -32 -30 -204 -141 -275 -179 -76 -40 -218 -100 -275 -118 -22 -6 -47
-14 -55 -17 -20 -8 -23 -9 -110 -28 -71 -16 -93 -20 -165 -31 -140 -22 -362
-6 -525 37 -41 11 -84 22 -95 24 -19 3 -137 45 -180 64 -57 25 -161 77 -165
82 -3 4 -14 9 -26 13 -30 9 -222 143 -289 201 -235 204 -407 443 -517 720 -43
109 -89 275 -102 375 -3 25 -9 56 -12 70 -8 33 -13 392 -5 405 3 6 7 26 8 45
3 49 43 241 54 263 6 9 7 17 4 17 -3 0 1 14 10 30 9 17 13 30 11 30 -7 0 71
188 94 227 11 19 20 41 20 49 0 8 4 14 9 14 5 0 12 9 16 20 7 22 113 186 136
210 8 8 27 33 44 55 88 118 299 302 455 397 139 84 360 183 451 202 13 3 48
12 77 20 28 8 52 12 52 10 0 -3 5 -2 12 2 7 4 22 9 34 10 12 1 39 5 60 9 22 3
68 8 104 11 35 3 66 7 68 8 1 2 17 2 35 0 17 -2 61 -6 97 -8z"/>
</g>
</svg>
